M48
;GenerationSoftware,Autodesk,EAGLE,9.6.2*%
;CreationDate,2023-12-02T09:40:08Z*%
FMAT,2
ICI,OFF
METRIC,TZ,000.000
T3C0.800
T2C1.000
T1C1.016
%
G90
M71
T1
X59690Y35560
X54610Y57150
X57150Y57150
X59690Y57150
X62230Y57150
X54610Y35560
X57150Y35560
X57150Y5080
X62230Y35560
X54610Y19050
X57150Y19050
X59690Y19050
X62230Y19050
X54610Y5080
X36830Y91440
X59690Y5080
X62230Y5080
X71120Y76200
X71120Y78740
X71120Y81280
X71120Y83820
X71120Y86360
X71120Y49530
X71120Y46990
X71120Y44450
X71120Y41910
X71120Y39370
X34290Y91440
T2
X9320Y39380
X9320Y64780
X9320Y62240
X9320Y59700
X9320Y57160
X9320Y54620
X9320Y52080
X9320Y49540
X9320Y47000
X9320Y44460
X9320Y41920
X9320Y36840
X9320Y34300
X9320Y31760
X9320Y29220
X34090Y64780
X34090Y62240
X34090Y59700
X34090Y57160
X34090Y54620
X34090Y52080
X34090Y49540
X34090Y47000
X34090Y44460
X34090Y41920
X34090Y39380
X34090Y36840
X34090Y34300
X34090Y31760
X34090Y29220
T3
X143450Y19050
X140910Y19050
X143450Y21590
X140910Y21590
X143450Y24130
X140910Y24130
X143450Y26670
X140910Y26670
X143450Y29210
X140910Y29210
X143450Y31750
X140910Y31750
X143450Y34290
X140910Y34290
X143450Y36830
X140910Y36830
X143450Y39370
X140910Y39370
X143450Y41910
X140910Y41910
X143450Y44450
X92710Y31750
X143450Y46990
X140910Y46990
X143450Y49530
X140910Y49530
X143450Y52070
X140910Y52070
X143450Y54610
X140910Y54610
X143450Y57150
X140910Y57150
X143450Y59690
X140910Y59690
X143450Y62230
X140910Y62230
X143450Y64770
X140910Y64770
X143450Y67310
X140910Y67310
X143450Y69850
X140910Y69850
X90170Y8890
X92710Y8890
X90170Y11430
X92710Y11430
X90170Y13970
X92710Y13970
X90170Y16510
X92710Y16510
X90170Y19050
X92710Y19050
X90170Y21590
X92710Y21590
X90170Y24130
X92710Y24130
X90170Y26670
X92710Y26670
X90170Y29210
X92710Y29210
X90170Y31750
X90170Y34290
X92710Y34290
X90170Y36830
X92710Y36830
X90170Y39370
X92710Y39370
X90170Y41910
X92710Y41910
X90170Y44450
X92710Y44450
X90170Y46990
X92710Y46990
X90170Y49530
X92710Y49530
X90170Y52070
X92710Y52070
X90170Y54610
X92710Y54610
X90170Y57150
X140910Y44450
X92710Y57150
X90170Y59690
X92710Y59690
X90170Y62230
X92710Y62230
X90170Y64770
X92710Y64770
X90170Y67310
X92710Y67310
X90170Y69850
X92710Y69850
X143450Y8890
X140910Y8890
X143450Y11430
X140910Y11430
X143450Y13970
X140910Y13970
X143450Y16510
X140910Y16510
M30