G04 EAGLE Gerber RS-274X export*
G75*
%MOMM*%
%FSLAX34Y34*%
%LPD*%
%INSoldermask Top*%
%IPPOS*%
%AMOC8*
5,1,8,0,0,1.08239X$1,22.5*%
G01*
%ADD10C,1.511200*%
%ADD11C,1.727200*%
%ADD12C,2.133600*%


D10*
X901700Y88900D02*
X888620Y88900D01*
X927100Y88900D02*
X940180Y88900D01*
X901700Y114300D02*
X888620Y114300D01*
X927100Y114300D02*
X940180Y114300D01*
X901700Y139700D02*
X888620Y139700D01*
X927100Y139700D02*
X940180Y139700D01*
X901700Y165100D02*
X888620Y165100D01*
X927100Y165100D02*
X940180Y165100D01*
X901700Y190500D02*
X888620Y190500D01*
X927100Y190500D02*
X940180Y190500D01*
X901700Y215900D02*
X888620Y215900D01*
X927100Y215900D02*
X940180Y215900D01*
X901700Y241300D02*
X888620Y241300D01*
X927100Y241300D02*
X940180Y241300D01*
X901700Y266700D02*
X888620Y266700D01*
X927100Y266700D02*
X940180Y266700D01*
X901700Y292100D02*
X888620Y292100D01*
X927100Y292100D02*
X940180Y292100D01*
X901700Y317500D02*
X888620Y317500D01*
X927100Y317500D02*
X940180Y317500D01*
X901700Y342900D02*
X888620Y342900D01*
X927100Y342900D02*
X940180Y342900D01*
X901700Y368300D02*
X888620Y368300D01*
X927100Y368300D02*
X940180Y368300D01*
X901700Y393700D02*
X888620Y393700D01*
X927100Y393700D02*
X940180Y393700D01*
X901700Y419100D02*
X888620Y419100D01*
X927100Y419100D02*
X940180Y419100D01*
X901700Y444500D02*
X888620Y444500D01*
X927100Y444500D02*
X940180Y444500D01*
X901700Y469900D02*
X888620Y469900D01*
X927100Y469900D02*
X940180Y469900D01*
X901700Y495300D02*
X888620Y495300D01*
X927100Y495300D02*
X940180Y495300D01*
X901700Y520700D02*
X888620Y520700D01*
X927100Y520700D02*
X940180Y520700D01*
X901700Y546100D02*
X888620Y546100D01*
X927100Y546100D02*
X940180Y546100D01*
X901700Y571500D02*
X888620Y571500D01*
X927100Y571500D02*
X940180Y571500D01*
X901700Y596900D02*
X888620Y596900D01*
X927100Y596900D02*
X940180Y596900D01*
X901700Y622300D02*
X888620Y622300D01*
X927100Y622300D02*
X940180Y622300D01*
X901700Y647700D02*
X888620Y647700D01*
X927100Y647700D02*
X940180Y647700D01*
X940180Y673100D02*
X927100Y673100D01*
X901700Y698500D02*
X888620Y698500D01*
X927100Y698500D02*
X940180Y698500D01*
X1434500Y88900D02*
X1447580Y88900D01*
X1409100Y88900D02*
X1396020Y88900D01*
X1434500Y114300D02*
X1447580Y114300D01*
X1409100Y114300D02*
X1396020Y114300D01*
X1434500Y139700D02*
X1447580Y139700D01*
X1409100Y139700D02*
X1396020Y139700D01*
X1434500Y165100D02*
X1447580Y165100D01*
X1409100Y165100D02*
X1396020Y165100D01*
X1434500Y190500D02*
X1447580Y190500D01*
X1409100Y190500D02*
X1396020Y190500D01*
X1434500Y215900D02*
X1447580Y215900D01*
X1409100Y215900D02*
X1396020Y215900D01*
X1434500Y241300D02*
X1447580Y241300D01*
X1409100Y241300D02*
X1396020Y241300D01*
X1434500Y266700D02*
X1447580Y266700D01*
X1409100Y266700D02*
X1396020Y266700D01*
X1434500Y292100D02*
X1447580Y292100D01*
X1409100Y292100D02*
X1396020Y292100D01*
X1434500Y317500D02*
X1447580Y317500D01*
X1409100Y317500D02*
X1396020Y317500D01*
X1434500Y342900D02*
X1447580Y342900D01*
X1409100Y342900D02*
X1396020Y342900D01*
X1434500Y368300D02*
X1447580Y368300D01*
X1409100Y368300D02*
X1396020Y368300D01*
X1434500Y393700D02*
X1447580Y393700D01*
X1409100Y393700D02*
X1396020Y393700D01*
X1434500Y419100D02*
X1447580Y419100D01*
X1409100Y419100D02*
X1396020Y419100D01*
X1434500Y444500D02*
X1447580Y444500D01*
X1409100Y444500D02*
X1396020Y444500D01*
X1434500Y469900D02*
X1447580Y469900D01*
X1409100Y469900D02*
X1396020Y469900D01*
X1434500Y495300D02*
X1447580Y495300D01*
X1409100Y495300D02*
X1396020Y495300D01*
X1434500Y520700D02*
X1447580Y520700D01*
X1409100Y520700D02*
X1396020Y520700D01*
X1434500Y546100D02*
X1447580Y546100D01*
X1409100Y546100D02*
X1396020Y546100D01*
X1434500Y571500D02*
X1447580Y571500D01*
X1409100Y571500D02*
X1396020Y571500D01*
X1434500Y596900D02*
X1447580Y596900D01*
X1409100Y596900D02*
X1396020Y596900D01*
X1434500Y622300D02*
X1447580Y622300D01*
X1409100Y622300D02*
X1396020Y622300D01*
X1434500Y647700D02*
X1447580Y647700D01*
X1409100Y647700D02*
X1396020Y647700D01*
X1396020Y673100D02*
X1409100Y673100D01*
X1434500Y698500D02*
X1447580Y698500D01*
X1409100Y698500D02*
X1396020Y698500D01*
D11*
X546100Y579120D02*
X546100Y563880D01*
X571500Y563880D02*
X571500Y579120D01*
X596900Y579120D02*
X596900Y563880D01*
X622300Y563880D02*
X622300Y579120D01*
X546100Y363220D02*
X546100Y347980D01*
X571500Y347980D02*
X571500Y363220D01*
X596900Y363220D02*
X596900Y347980D01*
X622300Y347980D02*
X622300Y363220D01*
X546100Y198120D02*
X546100Y182880D01*
X571500Y182880D02*
X571500Y198120D01*
X596900Y198120D02*
X596900Y182880D01*
X622300Y182880D02*
X622300Y198120D01*
X546100Y58420D02*
X546100Y43180D01*
X571500Y43180D02*
X571500Y58420D01*
X596900Y58420D02*
X596900Y43180D01*
X622300Y43180D02*
X622300Y58420D01*
X703580Y762000D02*
X718820Y762000D01*
X718820Y787400D02*
X703580Y787400D01*
X703580Y812800D02*
X718820Y812800D01*
X718820Y838200D02*
X703580Y838200D01*
X703580Y863600D02*
X718820Y863600D01*
X718820Y495300D02*
X703580Y495300D01*
X703580Y469900D02*
X718820Y469900D01*
X718820Y444500D02*
X703580Y444500D01*
X703580Y419100D02*
X718820Y419100D01*
X718820Y393700D02*
X703580Y393700D01*
X342900Y906780D02*
X342900Y922020D01*
X368300Y922020D02*
X368300Y906780D01*
D12*
X93200Y647800D03*
X93200Y622400D03*
X93200Y597000D03*
X93200Y571600D03*
X93200Y546200D03*
X93200Y520800D03*
X93200Y495400D03*
X93200Y470000D03*
X93200Y444600D03*
X93200Y419200D03*
X93200Y393800D03*
X93200Y368400D03*
X93200Y343000D03*
X93200Y317600D03*
X93200Y292200D03*
X340900Y647800D03*
X340900Y622400D03*
X340900Y597000D03*
X340900Y571600D03*
X340900Y546200D03*
X340900Y520800D03*
X340900Y495400D03*
X340900Y470000D03*
X340900Y444600D03*
X340900Y419200D03*
X340900Y393800D03*
X340900Y368400D03*
X340900Y343000D03*
X340900Y317600D03*
X340900Y292200D03*
M02*
